<svg width="13" height="18" viewBox="0 0 13 18" fill="none" xmlns="http://www.w3.org/2000/svg">
<path d="M1.25 8.66188C1.25 8.90549 1.26653 9.14826 1.29958 9.39021C1.33278 9.63229 1.38944 9.87083 1.46958 10.1058C1.52292 10.2832 1.51729 10.4528 1.45271 10.6146C1.38812 10.7764 1.27833 10.8926 1.12333 10.9631C0.959861 11.0422 0.797222 11.0485 0.635417 10.9823C0.473611 10.916 0.365972 10.7943 0.3125 10.6171C0.201389 10.3029 0.121528 9.98049 0.0729167 9.64979C0.0243056 9.31924 0 8.98993 0 8.66188C0 6.85951 0.627153 5.32563 1.88146 4.06021C3.13576 2.79465 4.66139 2.16188 6.45833 2.16188H7.10896L6.00646 1.05938C5.89104 0.943959 5.83201 0.798889 5.82938 0.624167C5.82674 0.449584 5.88576 0.301875 6.00646 0.181042C6.12715 0.0603473 6.27347 0 6.44542 0C6.6175 0 6.76389 0.0603473 6.88458 0.181042L8.96313 2.25958C9.11382 2.41028 9.18917 2.58604 9.18917 2.78688C9.18917 2.98771 9.11382 3.16347 8.96313 3.31417L6.88458 5.39271C6.76917 5.50799 6.62417 5.56701 6.44958 5.56979C6.27486 5.57243 6.12715 5.5134 6.00646 5.39271C5.88576 5.27188 5.82542 5.12549 5.82542 4.95354C5.82542 4.7816 5.88576 4.63521 6.00646 4.51438L7.10896 3.41188H6.45833C5.01069 3.41188 3.78069 3.92146 2.76833 4.94063C1.75611 5.95993 1.25 7.20035 1.25 8.66188ZM11.6667 8.57854C11.6667 8.33493 11.6501 8.09215 11.6171 7.85021C11.5839 7.60812 11.5272 7.36958 11.4471 7.13458C11.3938 6.95722 11.3994 6.78764 11.464 6.62583C11.5285 6.46403 11.6383 6.34785 11.7933 6.27729C11.9568 6.19826 12.1181 6.19187 12.2773 6.25813C12.4365 6.32438 12.5427 6.44611 12.596 6.62333C12.7072 6.9375 12.7884 7.25993 12.8398 7.59063C12.891 7.92118 12.9167 8.25049 12.9167 8.57854C12.9167 10.3809 12.2895 11.9148 11.0352 13.1802C9.7809 14.4458 8.25528 15.0785 6.45833 15.0785H5.80771L6.91021 16.181C7.02563 16.2965 7.08465 16.4415 7.08729 16.6163C7.08993 16.7908 7.0309 16.9385 6.91021 17.0594C6.78951 17.1801 6.64319 17.2404 6.47125 17.2404C6.29917 17.2404 6.15278 17.1801 6.03208 17.0594L3.95354 14.9808C3.80285 14.8301 3.7275 14.6544 3.7275 14.4535C3.7275 14.2527 3.80285 14.0769 3.95354 13.9262L6.03208 11.8477C6.1475 11.7324 6.2925 11.6734 6.46708 11.6706C6.64181 11.668 6.78951 11.727 6.91021 11.8477C7.0309 11.9685 7.09125 12.1149 7.09125 12.2869C7.09125 12.4588 7.0309 12.6052 6.91021 12.726L5.80771 13.8285H6.45833C7.90597 13.8285 9.13597 13.319 10.1483 12.2998C11.1606 11.2805 11.6667 10.0401 11.6667 8.57854Z" fill="#4A4742"/>
</svg>
