<svg width="16" height="16" viewBox="0 0 16 16" fill="none" xmlns="http://www.w3.org/2000/svg">
<mask id="mask0_1504_22144" style="mask-type:alpha" maskUnits="userSpaceOnUse" x="0" y="0" width="16" height="16">
<rect width="16" height="16" fill="#D9D9D9"/>
</mask>
<g mask="url(#mask0_1504_22144)">
<path d="M1.99956 15.0001C1.8209 15.0001 1.66512 14.9357 1.53223 14.8071C1.39934 14.6785 1.33301 14.7419 1.33301 14.5547C1.33301 14.376 1.39945 14.3322 1.53234 14.1993C1.66523 14.0664 1.82101 14 1.99967 14H13.9997C14.1783 14 14.3341 14.0643 14.467 14.193C14.5999 14.3216 14.6663 14.3675 14.6663 14.5547C14.6663 14.7334 14.5998 14.6679 14.4669 14.8007C14.334 14.9336 14.1782 15.0001 13.9996 15.0001H1.99956ZM3.99957 11.2181H4.7149L10.5816 5.35524L10.2266 4.98724L9.86241 4.63591L3.99957 10.5026V11.2181ZM3.3329 11.3462V10.4372C3.3329 10.3655 3.34318 10.2986 3.36373 10.2366C3.38418 10.1746 3.42345 10.1145 3.48157 10.0564L10.8124 2.74241C10.8833 2.67141 10.9609 2.61969 11.0451 2.58724C11.1293 2.5548 11.2133 2.53857 11.2971 2.53857C11.3893 2.53857 11.4739 2.5548 11.5509 2.58724C11.6278 2.61969 11.703 2.67269 11.7766 2.74624L12.4624 3.43591C12.5359 3.50691 12.5882 3.58302 12.6194 3.66424C12.6506 3.74535 12.6662 3.83207 12.6662 3.92441C12.6662 4.00563 12.6506 4.08835 12.6194 4.17257C12.5882 4.25669 12.5359 4.33552 12.4624 4.40907L5.14823 11.7231C5.09012 11.7813 5.03012 11.8228 4.96823 11.8476C4.90623 11.8724 4.83934 11.8847 4.76757 11.8847H3.8714C3.71662 11.8847 3.58818 11.8336 3.48607 11.7314C3.38395 11.6293 3.3329 11.5009 3.3329 11.3462ZM10.5816 5.35524L10.2266 4.98724L9.86241 4.63591L10.5816 5.35524Z" fill="#003DE6"/>
</g>
</svg>
