<svg width="24" height="24" viewBox="0 0 24 24" fill="none" xmlns="http://www.w3.org/2000/svg">
<mask id="mask0_2157_23973" style="mask-type:alpha" maskUnits="userSpaceOnUse" x="0" y="0" width="24" height="24">
<path d="M0 0H24V24H0V0Z" fill="#D9D9D9"/>
</mask>
<g mask="url(#mask0_2157_23973)">
<path d="M8.075 20.5C6.81083 20.5 5.73233 20.0535 4.8395 19.1605C3.9465 18.2677 3.5 17.1892 3.5 15.925C3.5 15.3097 3.61383 14.7244 3.8415 14.1692C4.069 13.6141 4.40008 13.1193 4.83475 12.6848L7.479 10.05C7.62767 9.90133 7.80425 9.82542 8.00875 9.82225C8.21325 9.81892 8.393 9.89483 8.548 10.05C8.70317 10.2052 8.78075 10.3808 8.78075 10.577C8.78075 10.7732 8.70317 10.9488 8.548 11.1038L5.8885 13.7537C5.59233 14.0499 5.36858 14.3852 5.21725 14.7595C5.06608 15.134 4.9905 15.5225 4.9905 15.925C4.9905 16.7802 5.29075 17.5064 5.89125 18.1038C6.49192 18.7013 7.21983 19 8.075 19C8.4775 19 8.8685 18.9243 9.248 18.773C9.6275 18.6218 9.96533 18.3982 10.2615 18.102L12.9057 15.452C13.0544 15.3135 13.2285 15.2427 13.428 15.2395C13.6273 15.2362 13.8045 15.3121 13.9595 15.4672C14.1147 15.6224 14.1923 15.7981 14.1923 15.9943C14.1923 16.1904 14.1147 16.366 13.9595 16.521L11.3152 19.1557C10.8807 19.5904 10.3859 19.9231 9.83075 20.1538C9.27558 20.3846 8.69033 20.5 8.075 20.5ZM9.4405 14.55C9.29167 14.4013 9.21725 14.2248 9.21725 14.0203C9.21725 13.8158 9.29167 13.6392 9.4405 13.4905L13.4905 9.4405C13.6392 9.29167 13.8158 9.21567 14.0203 9.2125C14.2248 9.20933 14.4045 9.28533 14.5595 9.4405C14.7147 9.5955 14.7923 9.77367 14.7923 9.975C14.7923 10.1763 14.7147 10.3545 14.5595 10.5095L10.5095 14.55C10.3608 14.6987 10.1827 14.7746 9.975 14.7778C9.76733 14.7811 9.58917 14.7052 9.4405 14.55ZM15.452 13.9595C15.2968 13.8108 15.2208 13.6352 15.224 13.4327C15.2272 13.2301 15.3032 13.0544 15.452 12.9058L18.1115 10.2615C18.4013 9.97183 18.6193 9.644 18.7655 9.278C18.9115 8.91183 18.9845 8.5275 18.9845 8.125C18.9845 7.25967 18.6868 6.5225 18.0913 5.9135C17.4958 5.3045 16.7653 5 15.9 5C15.4975 5 15.109 5.07567 14.7345 5.227C14.3602 5.37817 14.0282 5.59867 13.7385 5.8885L11.0942 8.548C10.9456 8.69683 10.7699 8.77283 10.5673 8.776C10.3648 8.77917 10.1892 8.70317 10.0405 8.548C9.89167 8.39933 9.81725 8.22275 9.81725 8.01825C9.81725 7.81375 9.89167 7.63717 10.0405 7.4885L12.6848 4.84425C13.1193 4.40958 13.6141 4.07692 14.1693 3.84625C14.7244 3.61542 15.3097 3.5 15.925 3.5C17.1892 3.5 18.2651 3.94808 19.1528 4.84425C20.0406 5.74042 20.4845 6.82567 20.4845 8.1C20.4845 8.70517 20.3733 9.28367 20.151 9.8355C19.9285 10.3875 19.5999 10.8807 19.1652 11.3152L16.5115 13.9595C16.3628 14.1083 16.1863 14.1827 15.9818 14.1827C15.7773 14.1827 15.6007 14.1083 15.452 13.9595Z" fill="#1C1B1F"/>
</g>
</svg>
