<svg width="15" height="15" viewBox="0 0 15 15" fill="none" xmlns="http://www.w3.org/2000/svg">
<path d="M8.125 3.82625V0.757291C8.125 0.539791 8.19743 0.359236 8.34229 0.215625C8.48715 0.0718745 8.6666 0 8.88063 0H13.4144C13.6285 0 13.8074 0.0718745 13.951 0.215625C14.0948 0.359236 14.1667 0.539791 14.1667 0.757291V3.82625C14.1667 4.04361 14.0942 4.2241 13.9494 4.36771C13.8045 4.51146 13.6251 4.58333 13.411 4.58333H8.87729C8.66313 4.58333 8.48424 4.51146 8.34063 4.36771C8.19688 4.2241 8.125 4.04361 8.125 3.82625ZM0 6.75V0.749792C0 0.537291 0.0724304 0.359236 0.217292 0.215625C0.362153 0.0718745 0.541597 0 0.755625 0H5.28938C5.50354 0 5.68243 0.0718745 5.82604 0.215625C5.96979 0.359375 6.04167 0.5375 6.04167 0.75V6.75021C6.04167 6.96271 5.96924 7.14076 5.82438 7.28438C5.67951 7.42813 5.50007 7.5 5.28604 7.5H0.752292C0.538125 7.5 0.359236 7.42813 0.215625 7.28438C0.0718751 7.14063 0 6.9625 0 6.75ZM8.125 13.4167V7.41646C8.125 7.20396 8.19743 7.0259 8.34229 6.88229C8.48715 6.73854 8.6666 6.66667 8.88063 6.66667H13.4144C13.6285 6.66667 13.8074 6.73854 13.951 6.88229C14.0948 7.02604 14.1667 7.20417 14.1667 7.41667V13.4169C14.1667 13.6294 14.0942 13.8074 13.9494 13.951C13.8045 14.0948 13.6251 14.1667 13.411 14.1667H8.87729C8.66313 14.1667 8.48424 14.0948 8.34063 13.951C8.19688 13.8073 8.125 13.6292 8.125 13.4167ZM0 13.4094V10.3404C0 10.1231 0.0724304 9.94257 0.217292 9.79896C0.362153 9.65521 0.541597 9.58333 0.755625 9.58333H5.28938C5.50354 9.58333 5.68243 9.65521 5.82604 9.79896C5.96979 9.94257 6.04167 10.1231 6.04167 10.3404V13.4094C6.04167 13.6269 5.96924 13.8074 5.82438 13.951C5.67951 14.0948 5.50007 14.1667 5.28604 14.1667H0.752292C0.538125 14.1667 0.359236 14.0948 0.215625 13.951C0.0718751 13.8074 0 13.6269 0 13.4094ZM1.25 6.25H4.79167V1.25H1.25V6.25ZM9.375 12.9167H12.9167V7.91667H9.375V12.9167ZM9.375 3.33333H12.9167V1.25H9.375V3.33333ZM1.25 12.9167H4.79167V10.8333H1.25V12.9167Z" fill="white"/>
</svg>
