<svg width="20" height="20" viewBox="0 0 20 20" fill="none" xmlns="http://www.w3.org/2000/svg">
<mask id="mask0_1617_753" style="mask-type:alpha" maskUnits="userSpaceOnUse" x="0" y="0" width="20" height="20">
<rect width="20" height="20" fill="#D9D9D9"/>
</mask>
<g mask="url(#mask0_1617_753)">
<path d="M9.99984 17.0834C7.97748 17.0834 6.2913 16.7979 4.9413 16.2267C3.59143 15.6558 2.9165 14.9424 2.9165 14.0865V5.83341C2.9165 5.02897 3.60775 4.34175 4.99025 3.77175C6.37275 3.20175 8.04262 2.91675 9.99984 2.91675C11.9571 2.91675 13.6269 3.20175 15.0094 3.77175C16.3919 4.34175 17.0832 5.02897 17.0832 5.83341V14.0865C17.0832 14.9424 16.4082 15.6558 15.0584 16.2267C13.7084 16.7979 12.0222 17.0834 9.99984 17.0834ZM9.99984 7.46487C11.2146 7.46487 12.4376 7.29314 13.669 6.94967C14.9003 6.60619 15.6137 6.23571 15.8092 5.83821C15.6189 5.43015 14.913 5.04953 13.6913 4.69633C12.4696 4.34328 11.2391 4.16675 9.99984 4.16675C8.76262 4.16675 7.53637 4.33848 6.32109 4.68196C5.10581 5.02543 4.39025 5.40015 4.17442 5.80612C4.38498 6.22279 5.09518 6.60342 6.30505 6.948C7.51505 7.29258 8.74664 7.46487 9.99984 7.46487ZM9.99984 11.6347C10.5779 11.6347 11.1404 11.6069 11.6873 11.5513C12.2343 11.4958 12.757 11.4146 13.2555 11.3078C13.7538 11.201 14.2204 11.0685 14.6553 10.9103C15.0901 10.7522 15.4828 10.5733 15.8332 10.3734V7.41675C15.4828 7.61647 15.0901 7.79543 14.6553 7.95362C14.2204 8.11168 13.7538 8.24411 13.2555 8.35092C12.757 8.45786 12.2343 8.53911 11.6873 8.59466C11.1404 8.65022 10.5779 8.678 9.99984 8.678C9.41123 8.678 8.83775 8.64883 8.27942 8.5905C7.72123 8.5323 7.19428 8.4498 6.69859 8.343C6.20289 8.23619 5.74109 8.10508 5.31317 7.94967C4.88525 7.79411 4.50303 7.61647 4.1665 7.41675V10.3734C4.50303 10.5733 4.88525 10.7509 5.31317 10.9063C5.74109 11.0617 6.20289 11.1929 6.69859 11.2997C7.19428 11.4066 7.72123 11.4892 8.27942 11.5474C8.83775 11.6056 9.41123 11.6347 9.99984 11.6347ZM9.99984 15.8334C10.6761 15.8334 11.3401 15.7888 11.9919 15.6997C12.6436 15.6104 13.2365 15.4886 13.7707 15.3342C14.3048 15.1798 14.7554 15.0006 15.1223 14.7965C15.4894 14.5925 15.7264 14.3783 15.8332 14.1538V11.6234C15.4828 11.8233 15.0901 12.0022 14.6553 12.1603C14.2204 12.3185 13.7538 12.451 13.2555 12.5578C12.757 12.6646 12.2343 12.7458 11.6873 12.8013C11.1404 12.8569 10.5779 12.8847 9.99984 12.8847C9.41123 12.8847 8.83775 12.8556 8.27942 12.7974C7.72123 12.7392 7.19428 12.6566 6.69859 12.5497C6.20289 12.4429 5.74109 12.3117 5.31317 12.1563C4.88525 12.0009 4.50303 11.8233 4.1665 11.6234V14.1667C4.27331 14.3965 4.5081 14.6099 4.87088 14.807C5.23352 15.004 5.68192 15.1798 6.21609 15.3342C6.75039 15.4886 7.34553 15.6104 8.0015 15.6997C8.65748 15.7888 9.32359 15.8334 9.99984 15.8334Z" fill="white"/>
</g>
</svg>
