<svg width="32" height="32" viewBox="0 0 32 32" fill="none" xmlns="http://www.w3.org/2000/svg">
<path d="M1.2666 18.912L15.9999 27.204L29.2253 19.804V22.7507L15.9999 30.216L2.02127 22.2693L1.26793 22.68V23.7067L15.9999 32L30.7333 23.7093V17.9533L30.0466 17.5413L15.9999 25.4907L2.84393 17.9533V15.0067L15.9999 22.4067L30.7333 14.116V8.42667L30.0466 8.016L15.9999 15.9653L3.52927 8.908L15.9999 1.85067L26.3466 7.67467L27.2373 7.12667V6.372L15.9999 0L1.2666 8.36V9.32L15.9999 17.6093L29.2253 10.2093V13.2227L15.9999 20.6933L2.02127 12.7467L1.26793 13.1573L1.2666 18.912Z" fill="#FF0000"/>
</svg>
