<svg width="20" height="20" viewBox="0 0 20 20" fill="none" xmlns="http://www.w3.org/2000/svg">
<mask id="mask0_1645_733" style="mask-type:alpha" maskUnits="userSpaceOnUse" x="0" y="0" width="20" height="20">
<rect width="20" height="20" fill="#D9D9D9"/>
</mask>
<g mask="url(#mask0_1645_733)">
<path d="M4.42296 17.0834C4.00741 17.0834 3.65241 16.9363 3.35796 16.642C3.06366 16.3475 2.9165 15.9925 2.9165 15.577V4.42321C2.9165 4.00765 3.06366 3.65265 3.35796 3.35821C3.65241 3.0639 4.00741 2.91675 4.42296 2.91675H15.5767C15.9923 2.91675 16.3473 3.0639 16.6417 3.35821C16.936 3.65265 17.0832 4.00765 17.0832 4.42321V15.577C17.0832 15.9925 16.936 16.3475 16.6417 16.642C16.3473 16.9363 15.9923 17.0834 15.5767 17.0834H4.42296ZM6.6665 15.8334V4.16675H4.42296C4.3588 4.16675 4.30005 4.19348 4.24671 4.24696C4.19324 4.30029 4.1665 4.35904 4.1665 4.42321V15.577C4.1665 15.6411 4.19324 15.6999 4.24671 15.7532C4.30005 15.8067 4.3588 15.8334 4.42296 15.8334H6.6665ZM7.9165 15.8334H15.5767C15.6409 15.8334 15.6996 15.8067 15.753 15.7532C15.8064 15.6999 15.8332 15.6411 15.8332 15.577V4.42321C15.8332 4.35904 15.8064 4.30029 15.753 4.24696C15.6996 4.19348 15.6409 4.16675 15.5767 4.16675H7.9165V15.8334Z" fill="white"/>
</g>
</svg>
