<svg width="8" height="5" viewBox="0 0 8 5" fill="none" xmlns="http://www.w3.org/2000/svg">
<path d="M3.3354 3.97567C3.26618 3.95 3.20035 3.906 3.1379 3.84367L0.141734 0.847501C0.0495122 0.755167 0.00228998 0.639111 6.77553e-05 0.499334C-0.00204336 0.359667 0.0451789 0.2415 0.141734 0.144833C0.238401 0.0482778 0.355512 0 0.493068 0C0.630623 0 0.747734 0.0482778 0.844401 0.144833L3.55973 2.86033L6.27507 0.144833C6.3674 0.0526112 6.48346 0.00538893 6.62323 0.00316671C6.7629 0.0010556 6.88107 0.0482778 6.97774 0.144833C7.07429 0.2415 7.12257 0.358611 7.12257 0.496167C7.12257 0.633723 7.07429 0.750834 6.97774 0.847501L3.98157 3.84367C3.91912 3.906 3.85329 3.95 3.78407 3.97567C3.71485 4.00133 3.64007 4.01417 3.55973 4.01417C3.4794 4.01417 3.40462 4.00133 3.3354 3.97567Z" fill="#4A4742"/>
</svg>
