<svg width="20" height="20" viewBox="0 0 20 20" fill="none" xmlns="http://www.w3.org/2000/svg">
<mask id="mask0_1617_773" style="mask-type:alpha" maskUnits="userSpaceOnUse" x="0" y="0" width="20" height="20">
<rect width="20" height="20" fill="#D9D9D9"/>
</mask>
<g mask="url(#mask0_1617_773)">
<path d="M4.91486 8.53911C4.70013 8.47495 4.49847 8.39266 4.30986 8.29224C4.12124 8.19182 3.94256 8.06467 3.77381 7.91078L3.27381 8.09037C3.1359 8.13523 3.0002 8.13363 2.86673 8.08557C2.73312 8.03752 2.6284 7.95314 2.55256 7.83245L2.43402 7.63682C2.35819 7.50752 2.33013 7.36974 2.34986 7.22349C2.36972 7.0771 2.43999 6.95474 2.56069 6.85641L2.96298 6.51661C2.90312 6.29342 2.87319 6.06481 2.87319 5.83078C2.87319 5.59675 2.90312 5.36814 2.96298 5.14495L2.56069 4.80516C2.43999 4.70682 2.36972 4.58662 2.34986 4.44453C2.33013 4.30245 2.35819 4.16675 2.43402 4.03745L2.56548 3.82911C2.64131 3.70842 2.74388 3.62405 2.87319 3.57599C3.00236 3.52793 3.1359 3.52634 3.27381 3.5712L3.77381 3.75078C3.94256 3.59689 4.12124 3.46974 4.30986 3.36932C4.49847 3.26891 4.70013 3.18661 4.91486 3.12245L4.99965 2.63057C5.03062 2.48418 5.10166 2.36398 5.21277 2.26995C5.32388 2.17592 5.45263 2.12891 5.59902 2.12891H5.82027C5.96666 2.12891 6.09541 2.17807 6.20652 2.27641C6.31763 2.3746 6.38868 2.49689 6.41965 2.64328L6.50444 3.12245C6.71916 3.18661 6.92083 3.26891 7.10944 3.36932C7.29805 3.46974 7.47673 3.59689 7.64548 3.75078L8.14548 3.5712C8.2834 3.52634 8.41909 3.52793 8.55256 3.57599C8.68618 3.62405 8.7909 3.70842 8.86673 3.82911L8.98527 4.02474C9.06111 4.15405 9.08916 4.29182 9.06944 4.43807C9.04958 4.58446 8.9793 4.70682 8.85861 4.80516L8.45632 5.14495C8.51618 5.36814 8.54611 5.59675 8.54611 5.83078C8.54611 6.06481 8.51618 6.29342 8.45632 6.51661L8.85861 6.85641C8.9793 6.95474 9.04958 7.07495 9.06944 7.21703C9.08916 7.35911 9.06111 7.49481 8.98527 7.62411L8.85382 7.83245C8.77798 7.95314 8.67541 8.03752 8.54611 8.08557C8.41694 8.13363 8.2834 8.13523 8.14548 8.09037L7.64548 7.91078C7.47673 8.06467 7.29805 8.19182 7.10944 8.29224C6.92083 8.39266 6.71916 8.47495 6.50444 8.53911L6.41965 9.03099C6.38868 9.17738 6.31763 9.29759 6.20652 9.39162C6.09541 9.48564 5.96666 9.53266 5.82027 9.53266H5.59902C5.45263 9.53266 5.32388 9.48349 5.21277 9.38516C5.10166 9.28696 5.03062 9.16467 4.99965 9.01828L4.91486 8.53911ZM6.93486 7.05599C7.27194 6.71891 7.44048 6.3105 7.44048 5.83078C7.44048 5.35106 7.27194 4.94266 6.93486 4.60557C6.59777 4.26849 6.18937 4.09995 5.70965 4.09995C5.22993 4.09995 4.82152 4.26849 4.48444 4.60557C4.14736 4.94266 3.97881 5.35106 3.97881 5.83078C3.97881 6.3105 4.14736 6.71891 4.48444 7.05599C4.82152 7.39307 5.22993 7.56161 5.70965 7.56161C6.18937 7.56161 6.59777 7.39307 6.93486 7.05599ZM12.4084 17.0214C12.1028 16.9595 11.8187 16.8521 11.5559 16.6993C11.293 16.5465 11.0563 16.3564 10.8459 16.1289L10.2305 16.3387C10.0499 16.4006 9.87069 16.4012 9.69277 16.3404C9.515 16.2794 9.37534 16.1629 9.27381 15.991L9.11673 15.7233C9.0152 15.5513 8.97861 15.3674 9.00694 15.1714C9.03527 14.9753 9.12687 14.8137 9.28173 14.6866L9.77861 14.2731C9.68666 13.9643 9.64069 13.6502 9.64069 13.3308C9.64069 13.0113 9.68666 12.6972 9.77861 12.3885L9.28173 11.9622C9.12687 11.835 9.03527 11.6756 9.00694 11.4839C8.97861 11.2921 9.0152 11.1102 9.11673 10.9383L9.27381 10.6706C9.37534 10.4986 9.515 10.3822 9.69277 10.3212C9.87069 10.2604 10.0499 10.2609 10.2305 10.3229L10.8459 10.5327C11.0563 10.3052 11.293 10.115 11.5559 9.96224C11.8187 9.80946 12.1028 9.7021 12.4084 9.64016L12.5399 8.97016C12.5793 8.78113 12.6717 8.62599 12.8169 8.50474C12.9624 8.38349 13.1339 8.32286 13.3315 8.32286H13.6711C13.8687 8.32286 14.0403 8.38349 14.1857 8.50474C14.331 8.62599 14.4233 8.78113 14.4628 8.97016L14.5942 9.64016C14.8998 9.7021 15.184 9.80946 15.4467 9.96224C15.7096 10.115 15.9463 10.3052 16.1567 10.5327L16.7721 10.3229C16.9527 10.2609 17.1319 10.2604 17.3099 10.3212C17.4876 10.3822 17.6273 10.4986 17.7288 10.6706L17.8859 10.9383C17.9874 11.1102 18.024 11.2942 17.9957 11.4902C17.9674 11.6863 17.8758 11.8479 17.7209 11.9749L17.224 12.3885C17.316 12.6972 17.3619 13.0113 17.3619 13.3308C17.3619 13.6502 17.316 13.9643 17.224 14.2731L17.7209 14.6993C17.8758 14.8265 17.9674 14.986 17.9957 15.1777C18.024 15.3695 17.9874 15.5513 17.8859 15.7233L17.7288 15.991C17.6273 16.1629 17.4876 16.2794 17.3099 16.3404C17.1319 16.4012 16.9527 16.4006 16.7721 16.3387L16.1567 16.1289C15.9463 16.3564 15.7096 16.5465 15.4467 16.6993C15.184 16.8521 14.8998 16.9595 14.5942 17.0214L14.4628 17.6914C14.4233 17.8804 14.331 18.0356 14.1857 18.1568C14.0403 18.2781 13.8687 18.3387 13.6711 18.3387H13.3315C13.1339 18.3387 12.9624 18.2781 12.8169 18.1568C12.6717 18.0356 12.5793 17.8804 12.5399 17.6914L12.4084 17.0214ZM13.5013 15.8308C14.1958 15.8308 14.786 15.5877 15.2721 15.1016C15.7583 14.6155 16.0013 14.0252 16.0013 13.3308C16.0013 12.6363 15.7583 12.0461 15.2721 11.5599C14.786 11.0738 14.1958 10.8308 13.5013 10.8308C12.8069 10.8308 12.2166 11.0738 11.7305 11.5599C11.2444 12.0461 11.0013 12.6363 11.0013 13.3308C11.0013 14.0252 11.2444 14.6155 11.7305 15.1016C12.2166 15.5877 12.8069 15.8308 13.5013 15.8308Z" fill="white"/>
</g>
</svg>
