<svg width="32" height="32" viewBox="0 0 32 32" fill="none" xmlns="http://www.w3.org/2000/svg">
<path fill-rule="evenodd" clip-rule="evenodd" d="M22.0093 10.7029C22.4106 11.8636 22.6996 13.0486 22.7946 14.2769C22.9126 15.8006 22.8586 17.3136 22.5373 18.8124C22.5286 18.8536 22.5101 18.8924 22.4963 18.9324C22.3956 18.9326 22.2928 18.9201 22.1943 18.9354C21.3621 19.0661 20.5306 19.2016 19.6991 19.3364C18.8396 19.4756 17.9788 19.6094 17.1208 19.7581C16.8168 19.8106 16.4406 19.7479 16.3178 20.1684C16.3143 20.1799 16.2793 20.1819 16.2591 20.1884L16.3006 17.6756L16.2583 11.6126L16.6588 11.5439C17.3138 11.4366 17.9688 11.3279 18.6243 11.2236C19.4066 11.0994 20.1896 10.9786 20.9723 10.8574C21.3176 10.8036 21.6633 10.7544 22.0093 10.7029Z" fill="#439934"/>
<path fill-rule="evenodd" clip-rule="evenodd" d="M15.4322 27.5136C15.0097 27.1504 14.5724 26.8031 14.1674 26.4211C11.9882 24.3656 10.3942 21.9464 9.60919 19.0296C9.39294 18.2269 9.24869 17.4111 9.20244 16.5816C9.16994 16.0011 9.12294 15.4154 9.16394 14.8379C9.27319 13.3019 9.49519 11.7806 9.94569 10.3011L9.97044 10.2666C10.0142 10.3249 10.0772 10.3764 10.0994 10.4421C10.5392 11.7371 10.9757 13.0331 11.4099 14.3299C12.7744 18.4049 14.1372 22.4809 15.5039 26.5549C15.5307 26.6344 15.5999 26.6996 15.6497 26.7714L15.4322 27.5136Z" fill="#45A538"/>
<path fill-rule="evenodd" clip-rule="evenodd" d="M22.0093 10.7031C21.6633 10.7546 21.3173 10.8038 20.972 10.8571C20.1893 10.9783 19.4063 11.0991 18.624 11.2233C17.9685 11.3276 17.3135 11.4363 16.6585 11.5436L16.258 11.6123L16.255 11.3511C16.2418 11.1363 16.219 10.9218 16.2165 10.7071C16.1993 9.33758 16.1885 7.96808 16.1715 6.59858C16.161 5.74133 16.1453 4.88433 16.1278 4.02733C16.117 3.49483 16.1055 2.96208 16.0815 2.43033C16.0685 2.14458 16.0225 1.86033 16.0038 1.57458C15.9933 1.41033 16.0078 1.24483 16.011 1.07983C16.2153 1.47558 16.415 1.87433 16.625 2.26708C16.9568 2.88808 17.4853 3.34558 17.961 3.84483C19.8418 5.81783 21.177 8.11183 22.0093 10.7031Z" fill="#46A037"/>
<path fill-rule="evenodd" clip-rule="evenodd" d="M16.2589 20.1882C16.2791 20.1817 16.3144 20.1797 16.3176 20.1682C16.4404 19.7477 16.8166 19.8104 17.1206 19.7579C17.9786 19.6094 18.8394 19.4754 19.6989 19.3362C20.5304 19.2014 21.3619 19.0659 22.1941 18.9352C22.2926 18.9197 22.3954 18.9324 22.4961 18.9322C22.3406 19.4872 22.2181 20.0542 22.0209 20.5939C21.7969 21.2062 21.5259 21.8037 21.2381 22.3894C20.8073 23.2631 20.2742 24.0824 19.6499 24.8302C19.1701 25.4072 18.6354 25.9404 18.0994 26.4672C17.8031 26.7584 17.4539 26.9957 17.1289 27.2574L17.0446 27.1999L16.7411 26.9404L16.4271 26.2522C16.2126 25.4493 16.0956 24.6235 16.0786 23.7927L16.0844 23.6524L16.1271 23.0459C16.1414 22.8389 16.1604 22.6322 16.1691 22.4247C16.2014 21.6792 16.2294 20.9337 16.2589 20.1882Z" fill="#409433"/>
<path fill-rule="evenodd" clip-rule="evenodd" d="M16.2591 20.1882C16.2296 20.9337 16.2016 21.6792 16.1698 22.4249C16.1611 22.6324 16.1421 22.8392 16.1278 23.0462L15.9366 23.1184C15.5118 21.8679 15.0868 20.6307 14.6711 19.3902C13.9836 17.3379 13.3043 15.2824 12.6178 13.2297C12.0633 11.5728 11.505 9.91719 10.9428 8.26291C10.9166 8.18541 10.8411 8.12491 10.7886 8.05641L12.0126 5.80591C12.0546 5.87891 12.1101 5.94716 12.1366 6.02566C12.7035 7.70119 13.2675 9.37769 13.8286 11.0552C14.5576 13.2377 15.2821 15.4219 16.0106 17.6047C16.0396 17.6919 16.0876 17.7724 16.1333 17.8702L16.3008 17.6752L16.2591 20.1882Z" fill="#4FAA41"/>
<path fill-rule="evenodd" clip-rule="evenodd" d="M10.7887 8.05664C10.8412 8.12514 10.9165 8.18564 10.943 8.26314C11.5051 9.91742 12.0635 11.573 12.618 13.2299C13.3045 15.2826 13.9837 17.3381 14.6712 19.3904C15.0867 20.6306 15.5117 21.8681 15.9367 23.1186L16.128 23.0464L16.0852 23.6529L16.0465 23.7926C15.98 24.4566 15.924 25.1221 15.843 25.7846C15.8022 26.1166 15.7157 26.4426 15.65 26.7714C15.6005 26.6996 15.531 26.6344 15.5042 26.5549C14.1375 22.4806 12.7747 18.4049 11.4102 14.3299C10.9761 13.0331 10.5393 11.7371 10.0997 10.4421C10.0775 10.3764 10.0147 10.3249 9.9707 10.2666L10.7887 8.05664Z" fill="#4AA73C"/>
<path fill-rule="evenodd" clip-rule="evenodd" d="M16.3005 17.6754L16.133 17.8704C16.0872 17.7727 16.0392 17.6919 16.0102 17.6049C15.282 15.4222 14.5572 13.2379 13.8282 11.0554C13.2671 9.37797 12.7031 7.70147 12.1362 6.02594C12.11 5.94744 12.0545 5.87894 12.0122 5.80619L13.526 3.81494C13.5737 3.87869 13.6417 3.93544 13.6665 4.00719C14.0867 5.23744 14.5032 6.46919 14.9172 7.70169C15.304 8.85269 15.685 10.0054 16.0762 11.1549C16.1025 11.2319 16.1937 11.2864 16.2547 11.3514L16.2577 11.6127C16.2722 13.6332 16.2865 15.6544 16.3005 17.6754Z" fill="#57AE47"/>
<path fill-rule="evenodd" clip-rule="evenodd" d="M16.2551 11.3509C16.1941 11.2859 16.1029 11.2314 16.0766 11.1544C15.6854 10.0049 15.3044 8.85218 14.9176 7.70118C14.5036 6.46868 14.0871 5.23718 13.6669 4.00668C13.6421 3.93493 13.5741 3.87818 13.5264 3.81443C14.0186 3.33243 14.4956 2.83318 15.0076 2.37343C15.4629 1.96493 15.8289 1.52693 15.8456 0.88143C15.8464 0.85468 15.8604 0.82793 15.8819 0.75293L16.0116 1.07943C16.0084 1.24468 15.9936 1.40993 16.0044 1.57418C16.0231 1.85993 16.0691 2.14418 16.0821 2.42993C16.1061 2.96168 16.1176 3.49443 16.1284 4.02693C16.1456 4.88393 16.1614 5.74093 16.1721 6.59818C16.1889 7.96768 16.1999 9.33718 16.2171 10.7067C16.2191 10.9219 16.2416 11.1362 16.2551 11.3509Z" fill="#60B24F"/>
<path fill-rule="evenodd" clip-rule="evenodd" d="M15.6496 26.7713C15.7154 26.4425 15.8019 26.1163 15.8426 25.7845C15.9239 25.1223 15.9796 24.4565 16.0461 23.7925L16.0626 23.79L16.0791 23.7928C16.0961 24.6236 16.2131 25.4494 16.4276 26.2523C16.3836 26.3103 16.3214 26.362 16.2981 26.4275C16.1164 26.94 15.9451 27.4565 15.7624 27.969C15.7374 28.039 15.6679 28.0935 15.6189 28.155L15.4321 27.5135L15.6496 26.7713Z" fill="#A9AA88"/>
<path fill-rule="evenodd" clip-rule="evenodd" d="M15.6191 28.1552C15.6681 28.0937 15.7379 28.0392 15.7626 27.9692C15.9454 27.4567 16.1169 26.9404 16.2984 26.4277C16.3216 26.3622 16.3836 26.3104 16.4279 26.2524L16.7416 26.9409C16.6796 27.0289 16.5941 27.1082 16.5596 27.2062L15.9586 28.9709C15.9339 29.0417 15.8494 29.0917 15.7929 29.1514L15.6191 28.1552Z" fill="#B6B598"/>
<path fill-rule="evenodd" clip-rule="evenodd" d="M15.793 29.1512C15.8497 29.0917 15.934 29.0414 15.9587 28.9707L16.5597 27.2059C16.594 27.1082 16.6797 27.0287 16.7417 26.9407L17.0455 27.1999C16.8987 27.3449 16.8172 27.5124 16.8662 27.7242L16.774 28.0262C16.732 28.0779 16.6712 28.1229 16.6505 28.1822C16.4407 28.7829 16.2405 29.3869 16.0292 29.9877C16.0025 30.0639 15.9282 30.1237 15.8757 30.1907C15.8485 29.8439 15.8207 29.4979 15.793 29.1512Z" fill="#C2C1A7"/>
<path fill-rule="evenodd" clip-rule="evenodd" d="M15.8757 30.1909C15.9279 30.1236 16.0022 30.0639 16.0292 29.9879C16.2404 29.3874 16.4407 28.7834 16.6504 28.1824C16.6712 28.1234 16.7317 28.0781 16.7739 28.0264L16.6467 29.4126C16.6127 29.4519 16.5634 29.4861 16.5472 29.5319C16.4034 29.9354 16.2679 30.3419 16.1237 30.7454C16.0939 30.8286 16.0369 30.9021 15.9924 30.9799C15.9529 30.9281 15.8822 30.8781 15.8789 30.8241C15.8662 30.6139 15.8749 30.4021 15.8757 30.1909Z" fill="#CECDB7"/>
<path fill-rule="evenodd" clip-rule="evenodd" d="M15.9922 30.9798C16.0367 30.9018 16.0937 30.8283 16.1234 30.7453C16.2679 30.3421 16.4032 29.9356 16.5469 29.5318C16.5632 29.4861 16.6127 29.4521 16.6464 29.4126L16.6494 30.3226L16.3449 31.1036L15.9922 30.9798Z" fill="#DBDAC7"/>
<path fill-rule="evenodd" clip-rule="evenodd" d="M16.3452 31.1038L16.6497 30.3228L16.7125 31.2468L16.3452 31.1038Z" fill="#EBE9DC"/>
<path fill-rule="evenodd" clip-rule="evenodd" d="M16.8659 27.7244C16.8169 27.5127 16.8981 27.3449 17.0451 27.2002L17.1294 27.2577L16.8659 27.7244Z" fill="#CECDB7"/>
<path fill-rule="evenodd" clip-rule="evenodd" d="M16.0789 23.7931L16.0624 23.7903L16.0459 23.7928L16.0846 23.6531L16.0789 23.7931Z" fill="#4FAA41"/>
</svg>
