<svg width="24" height="24" viewBox="0 0 24 24" fill="none" xmlns="http://www.w3.org/2000/svg">
<mask id="mask0_1617_811" style="mask-type:alpha" maskUnits="userSpaceOnUse" x="0" y="0" width="24" height="24">
<rect width="24" height="24" fill="#D9D9D9"/>
</mask>
<g mask="url(#mask0_1617_811)">
<path d="M11.6266 21C11.1206 21 10.688 20.834 10.3288 20.502C9.96937 20.17 9.78968 19.7708 9.78968 19.3046H13.4671C13.4671 19.7724 13.2869 20.1719 12.9265 20.5032C12.5661 20.8344 12.1328 21 11.6266 21ZM4.76284 18.3667C4.5467 18.3667 4.36557 18.2993 4.21944 18.1646C4.07315 18.0297 4 17.8625 4 17.663C4 17.4637 4.07315 17.2967 4.21944 17.162C4.36557 17.0274 4.5467 16.9601 4.76284 16.9601H5.83869V9.96187C5.83869 8.70058 6.26088 7.58537 7.10526 6.61622C7.94946 5.64708 9.03337 5.02722 10.357 4.75665V4.17235C10.357 3.84675 10.4805 3.56992 10.7275 3.34186C10.9745 3.11395 11.2743 3 11.6271 3C11.98 3 12.2803 3.11395 12.528 3.34186C12.7758 3.56992 12.8998 3.84675 12.8998 4.17235V4.35992C12.7328 4.63769 12.6004 4.92023 12.5026 5.20753C12.4048 5.49499 12.3448 5.79324 12.3228 6.10227C12.207 6.08304 12.0941 6.06616 11.9841 6.05162C11.8743 6.03724 11.7557 6.03005 11.6284 6.03005C10.4509 6.03005 9.44581 6.41396 8.61313 7.18177C7.78062 7.94942 7.36437 8.87612 7.36437 9.96187V16.9601H15.8924V11.0965C16.1258 11.1734 16.3723 11.2335 16.6318 11.2768C16.8914 11.3201 17.1534 11.3388 17.4181 11.3328V16.9601H18.4939C18.71 16.9601 18.8912 17.0275 19.0373 17.1622C19.1836 17.2971 19.2567 17.4643 19.2567 17.6637C19.2567 17.863 19.1836 18.0301 19.0373 18.1648C18.8912 18.2994 18.71 18.3667 18.4939 18.3667H4.76284ZM15.2226 8.53372C14.6781 8.03242 14.4059 7.42366 14.4059 6.70743C14.4059 5.99136 14.6777 5.38229 15.2213 4.88021C15.765 4.37829 16.4251 4.12733 17.2017 4.12733C17.9784 4.12733 18.6389 4.37798 19.1833 4.87927C19.7278 5.38057 20 5.98925 20 6.70532C20 7.42155 19.7282 8.03062 19.1845 8.53255C18.6409 9.03462 17.9807 9.28566 17.2039 9.28566C16.4274 9.28566 15.7669 9.03501 15.2226 8.53372Z" fill="#D64545"/>
</g>
</svg>
