<svg width="32" height="32" viewBox="0 0 32 32" fill="none" xmlns="http://www.w3.org/2000/svg">
<path d="M11.3294 24.4333H21.1254C25.7814 24.32 29.4454 20.4307 29.3307 15.8013C29.2174 11.2867 25.5841 7.68132 21.1254 7.56799H11.3294C6.67341 7.45466 2.78274 11.1173 2.66941 15.7733C2.64033 16.8791 2.82961 17.9799 3.22642 19.0124C3.62323 20.045 4.21978 20.9892 4.98192 21.791C5.74406 22.5928 6.65683 23.2364 7.668 23.685C8.67916 24.1336 9.76887 24.3784 10.8747 24.4053C11.0174 24.4333 11.1601 24.4333 11.3294 24.4333ZM20.8961 21.452H11.5281C8.51874 21.3667 6.16141 18.8387 6.24808 15.8307C6.36008 12.9627 8.66141 10.6347 11.5281 10.5493H20.8974C23.9081 10.464 26.4347 12.82 26.5201 15.8293C26.6054 18.84 24.2481 21.3667 21.2387 21.452H20.8961Z" fill="#D63E29"/>
</svg>
