<svg width="32" height="32" viewBox="0 0 32 32" fill="none" xmlns="http://www.w3.org/2000/svg">
<path d="M28.9329 19.3601C25.4517 20.0784 25.2124 18.8996 25.2124 18.8996C28.8882 13.4456 30.4247 6.52211 29.0987 4.82786C25.4812 0.205856 19.2189 2.39161 19.1144 2.44836L19.0807 2.45436C18.3929 2.31161 17.6232 2.22661 16.7579 2.21261C15.1827 2.18686 13.9879 2.62561 13.0812 3.31311C13.0812 3.31311 1.91018 -1.28889 2.42968 9.10086C2.54018 11.3114 5.59768 25.8256 9.24468 21.4416C10.5777 19.8386 11.8654 18.4831 11.8654 18.4831C12.5052 18.9079 13.2709 19.1249 14.0737 19.0469L14.1362 18.9939C14.1167 19.1929 14.1257 19.3876 14.1612 19.6181C13.2217 20.6679 13.4977 20.8521 11.6194 21.2386C9.71893 21.6301 10.8354 22.3274 11.5644 22.5096C12.4479 22.7306 14.4924 23.0436 15.8737 21.1101L15.8184 21.3306C16.1867 21.6256 16.4452 23.2486 16.4019 24.7199C16.3584 26.1911 16.3294 27.2014 16.6197 27.9904C16.9097 28.7794 17.1987 30.5544 19.6677 30.0254C21.7307 29.5834 22.7997 28.4376 22.9487 26.5266C23.0542 25.1679 23.2929 25.3689 23.3082 24.1541L23.4999 23.5791C23.7209 21.7374 23.5349 21.1434 24.8062 21.4196L25.1149 21.4466C26.0504 21.4891 27.2747 21.2961 27.9934 20.9621C29.5409 20.2444 30.4587 19.0454 28.9329 19.3601Z" fill="#336791"/>
<path d="M18.9895 30.5767C16.9315 30.5767 16.2795 28.9469 16.0127 28.2804C15.6222 27.3037 15.538 23.5132 15.625 20.4047C15.6263 20.3522 15.6379 20.3006 15.6593 20.2527C15.6806 20.2048 15.7112 20.1616 15.7493 20.1256C15.7874 20.0895 15.8323 20.0614 15.8813 20.0428C15.9303 20.0242 15.9826 20.0155 16.035 20.0172C16.0873 20.0186 16.1389 20.0303 16.1867 20.0517C16.2346 20.0731 16.2777 20.1036 16.3137 20.1417C16.3497 20.1798 16.3778 20.2245 16.3965 20.2735C16.4151 20.3224 16.424 20.3745 16.4225 20.4269C16.3222 24.0122 16.4645 27.2612 16.7535 27.9842C17.2045 29.1114 17.8885 30.0974 19.8222 29.6832C21.658 29.2894 22.3455 28.5934 22.6517 26.8182C22.8867 25.4559 23.3515 21.5804 23.4087 20.8157C23.4126 20.7634 23.4267 20.7124 23.4502 20.6656C23.4738 20.6188 23.5064 20.5771 23.5461 20.5429C23.5858 20.5087 23.6319 20.4827 23.6817 20.4664C23.7315 20.45 23.784 20.4437 23.8362 20.4477C23.9417 20.4556 24.0397 20.5051 24.1086 20.5853C24.1776 20.6654 24.212 20.7697 24.2042 20.8752C24.1445 21.6714 23.682 25.5394 23.438 26.9539C23.0765 29.0507 22.1417 30.0017 19.9895 30.4632C19.6237 30.5414 19.2915 30.5764 18.9895 30.5767ZM7.83048 22.6164C7.6506 22.6158 7.47199 22.5862 7.30148 22.5289C5.96473 22.0829 4.69148 19.9059 3.51698 16.0577C2.62298 13.1284 2.05648 10.0709 2.00673 9.07715C1.85948 6.13115 2.61798 4.0469 4.26173 2.88265C7.51348 0.578652 12.9837 2.77265 13.215 2.86715C13.3129 2.90717 13.391 2.98446 13.432 3.08202C13.473 3.17959 13.4735 3.28944 13.4335 3.3874C13.3935 3.48537 13.3162 3.56342 13.2186 3.6044C13.121 3.64538 13.0112 3.64592 12.9132 3.6059C12.8605 3.5844 7.61498 1.4829 4.72123 3.53465C3.31573 4.53115 2.67048 6.38265 2.80323 9.0374C2.84498 9.87465 3.37423 12.8587 4.27973 15.8247C5.32823 19.2602 6.52148 21.4279 7.55373 21.7722C7.71573 21.8262 8.20873 21.9904 8.91348 21.1429C9.73534 20.1559 10.588 19.1949 11.4702 18.2614C11.5441 18.1878 11.6438 18.146 11.748 18.1449C11.8523 18.1439 11.9528 18.1837 12.0281 18.2558C12.1034 18.328 12.1474 18.4267 12.1508 18.5309C12.1542 18.6351 12.1167 18.7365 12.0462 18.8134C12.0342 18.8259 10.8345 20.0802 9.52698 21.6532C8.90773 22.3979 8.31423 22.6164 7.83048 22.6164ZM25.1877 19.2552C25.1154 19.2551 25.0445 19.2353 24.9825 19.198C24.9206 19.1607 24.8699 19.1073 24.8359 19.0434C24.802 18.9796 24.7861 18.9077 24.7898 18.8355C24.7936 18.7633 24.8169 18.6934 24.8572 18.6334C28.573 13.1197 29.8772 6.4574 28.7602 5.0299C27.3542 3.2334 25.369 2.29515 22.8592 2.2409C21.001 2.2009 19.524 2.6754 19.2825 2.75815L19.2217 2.7829C18.979 2.85915 18.7927 2.72615 18.7225 2.57065C18.6824 2.48156 18.6764 2.38089 18.7054 2.28763C18.7345 2.19437 18.7967 2.11497 18.8802 2.0644C18.8917 2.05765 18.9282 2.04215 18.9875 2.0204L18.9822 2.0219L18.9875 2.02015C19.3977 1.8699 20.8972 1.42015 22.7545 1.4414C25.5315 1.4709 27.8255 2.54165 29.388 4.5384C30.1272 5.48315 30.129 7.65965 29.3927 10.5102C28.6422 13.4164 27.23 16.5397 25.5185 19.0794C25.442 19.1937 25.316 19.2552 25.1877 19.2552ZM25.3777 21.8077C24.7432 21.8077 24.1745 21.7182 23.834 21.5142C23.484 21.3044 23.4172 21.0194 23.4085 20.8682C23.313 19.1907 24.2385 18.8987 24.7105 18.7654C24.6447 18.6659 24.5512 18.5489 24.4545 18.4282C24.1792 18.0842 23.8022 17.6132 23.5117 16.9087C23.4662 16.7987 23.3237 16.5429 23.1587 16.2467C22.264 14.6422 20.4022 11.3034 21.5982 9.59365C22.1517 8.8024 23.254 8.4909 24.878 8.66465C24.4002 7.20915 22.1252 2.65615 16.727 2.56765C15.1035 2.54065 13.772 3.0399 12.7715 4.05015C10.5315 6.3124 10.6125 10.4057 10.6137 10.4467C10.6151 10.499 10.6062 10.5511 10.5874 10.6C10.5686 10.649 10.5404 10.6937 10.5044 10.7317C10.4683 10.7697 10.4251 10.8002 10.3773 10.8215C10.3294 10.8428 10.2778 10.8545 10.2255 10.8559C10.1731 10.8573 10.121 10.8483 10.0721 10.8296C10.0232 10.8108 9.97845 10.7826 9.94045 10.7465C9.90245 10.7105 9.87192 10.6673 9.85061 10.6194C9.82929 10.5716 9.81761 10.52 9.81623 10.4677C9.81123 10.2859 9.72773 5.9904 12.2047 3.48865C13.364 2.3179 14.89 1.7399 16.7402 1.77015C20.1937 1.8269 22.4167 3.58265 23.6732 5.0454C25.043 6.63965 25.7145 8.39815 25.7697 8.98515C25.811 9.42165 25.4977 9.5089 25.4345 9.5219L25.2905 9.52515C23.6967 9.2699 22.6742 9.44715 22.2515 10.0512C21.3417 11.3514 23.103 14.5097 23.855 15.8584C24.047 16.2024 24.1855 16.4512 24.249 16.6047C24.496 17.2037 24.8182 17.6062 25.077 17.9297C25.3047 18.2142 25.502 18.4609 25.5725 18.7504C25.6052 18.8079 26.07 19.4954 28.8277 18.9262C29.519 18.7837 29.9335 18.9054 30.0602 19.2887C30.3095 20.0424 28.911 20.9217 28.1367 21.2812C27.443 21.6037 26.3357 21.8077 25.3777 21.8077ZM24.2037 20.8024C24.2912 20.8907 24.729 21.0429 25.6355 21.0039C26.4415 20.9694 27.2915 20.7942 27.8015 20.5574C28.4537 20.2544 28.8892 19.9157 29.1147 19.6844L28.9897 19.7074C27.2265 20.0714 25.9792 20.0229 25.2827 19.5632C25.2359 19.5322 25.1909 19.4988 25.1477 19.4629C25.0722 19.4927 25.0025 19.5122 24.9527 19.5262C24.5577 19.6369 24.1492 19.7517 24.2037 20.8024ZM12.8132 23.0312C12.3752 23.0312 11.9142 22.9714 11.4435 22.8537C10.9557 22.7317 10.1335 22.3644 10.146 21.7612C10.1602 21.0844 11.1445 20.8814 11.515 20.8052C12.8535 20.5294 12.9407 20.4189 13.359 19.8877C13.481 19.7329 13.6327 19.5402 13.8397 19.3092C14.147 18.9652 14.4827 18.7909 14.8377 18.7909C15.085 18.7909 15.2877 18.8747 15.4217 18.9304C15.8487 19.1074 16.205 19.5354 16.3515 20.0472C16.4837 20.5089 16.4205 20.9534 16.174 21.2987C15.3647 22.4319 14.2025 23.0312 12.8132 23.0312ZM11.0077 21.7954C11.128 21.8884 11.369 22.0127 11.6372 22.0797C12.045 22.1817 12.4405 22.2334 12.8135 22.2334C13.95 22.2334 14.8625 21.7629 15.5252 20.8349C15.6635 20.6414 15.622 20.3957 15.585 20.2664C15.5075 19.9957 15.315 19.7494 15.1167 19.6672C15.0092 19.6227 14.92 19.5887 14.838 19.5887C14.794 19.5887 14.66 19.5887 14.4345 19.8409C14.2789 20.0159 14.1293 20.1962 13.986 20.3814C13.465 21.0429 13.2262 21.2674 11.6762 21.5867C11.298 21.6642 11.104 21.7432 11.0077 21.7954ZM14.075 19.9554C13.9798 19.9553 13.8877 19.921 13.8155 19.859C13.7433 19.7969 13.6957 19.711 13.6812 19.6169C13.6713 19.5507 13.6646 19.484 13.6612 19.4172C12.6452 19.3982 11.665 18.9622 10.9207 18.1857C9.97973 17.2039 9.55148 15.8437 9.74598 14.4539C9.95723 12.9447 9.87823 11.6124 9.83573 10.8967C9.82398 10.6977 9.81548 10.5539 9.81598 10.4544C9.81673 10.3282 9.81923 9.9934 10.9382 9.42615C11.3362 9.2244 12.1342 8.8724 13.006 8.78215C14.4502 8.6329 15.4022 9.27615 15.6872 10.5937C16.4565 14.1507 15.7482 15.7239 15.231 16.8729C15.1347 17.0869 15.0437 17.2889 14.971 17.4847L14.9067 17.6572C14.6335 18.3899 14.3972 19.0229 14.4697 19.4957C14.4777 19.5474 14.4754 19.6003 14.4629 19.6511C14.4504 19.702 14.4281 19.7499 14.3971 19.7922C14.3661 19.8344 14.3271 19.8701 14.2823 19.8973C14.2375 19.9244 14.1878 19.9425 14.136 19.9504L14.075 19.9554ZM10.6162 10.5649L10.6317 10.8497C10.6757 11.5932 10.7577 12.9767 10.5357 14.5647C10.3755 15.7109 10.7255 16.8297 11.4965 17.6337C12.1057 18.2692 12.9075 18.6199 13.7315 18.6199H13.7485C13.8407 18.2312 13.994 17.8207 14.159 17.3784L14.2227 17.2069C14.305 16.9859 14.4012 16.7719 14.5032 16.5454C15.001 15.4394 15.6207 14.0627 14.907 10.7624C14.7657 10.1087 14.423 9.7304 13.8597 9.60565C12.7027 9.35015 10.9785 10.2204 10.6162 10.5649ZM13.0237 10.3957C13.0037 10.5367 13.282 10.9132 13.645 10.9634C14.0072 11.0142 14.3172 10.7197 14.337 10.5787C14.3567 10.4377 14.0787 10.2822 13.7157 10.2317C13.353 10.1812 13.043 10.2547 13.0237 10.3957ZM13.7282 11.1022L13.6265 11.0952C13.4015 11.0639 13.174 10.9222 13.0182 10.7157C12.9635 10.6432 12.8742 10.5027 12.892 10.3772C12.9172 10.1932 13.1417 10.0829 13.492 10.0829C13.5702 10.0829 13.6517 10.0887 13.7337 10.1002C13.9252 10.1267 14.103 10.1819 14.2342 10.2552C14.4617 10.3822 14.4785 10.5239 14.4682 10.5972C14.4402 10.8004 14.117 11.1022 13.7282 11.1022ZM13.156 10.4192C13.1672 10.5062 13.3827 10.7932 13.6632 10.8319L13.7285 10.8364C13.9875 10.8364 14.181 10.6327 14.2037 10.5659C14.1797 10.5204 14.0132 10.4074 13.6975 10.3634C13.6295 10.3537 13.5609 10.3487 13.4922 10.3487C13.2892 10.3487 13.1815 10.3944 13.156 10.4192ZM24.0572 10.1079C24.077 10.2489 23.799 10.6254 23.4362 10.6759C23.0737 10.7264 22.7635 10.4322 22.7435 10.2912C22.7245 10.1502 23.0025 9.9944 23.365 9.94415C23.7275 9.8934 24.0372 9.96715 24.0572 10.1079ZM23.3525 10.7479C23.0035 10.7479 22.7022 10.4764 22.6775 10.3002C22.6487 10.0887 22.997 9.9279 23.3555 9.87815C23.4345 9.86715 23.5127 9.86165 23.588 9.86165C23.8975 9.86165 24.1025 9.9524 24.123 10.0989C24.1362 10.1937 24.0635 10.3399 23.9382 10.4719C23.8555 10.5587 23.6817 10.7089 23.445 10.7417L23.3525 10.7479ZM23.5882 9.99465C23.5192 9.99465 23.4472 9.9999 23.3742 10.0099C23.014 10.0602 22.799 10.2047 22.8095 10.2822C22.8215 10.3674 23.0515 10.6152 23.3527 10.6152L23.427 10.6099C23.6237 10.5827 23.7715 10.4542 23.842 10.3802C23.9527 10.2639 23.9967 10.1544 23.9915 10.1172C23.9845 10.0677 23.8515 9.99465 23.5882 9.99465ZM24.5795 18.2054C24.5072 18.2054 24.4363 18.1858 24.3743 18.1487C24.3123 18.1115 24.2616 18.0582 24.2276 17.9944C24.1936 17.9306 24.1776 17.8588 24.1813 17.7866C24.1849 17.7145 24.2082 17.6446 24.2485 17.5847C25.098 16.3159 24.9425 15.0222 24.7922 13.7709C24.728 13.2379 24.662 12.6867 24.679 12.1577C24.6965 11.6134 24.7657 11.1644 24.8325 10.7302C24.9117 10.2157 24.9867 9.72965 24.9557 9.15265C24.9529 9.10035 24.9604 9.04801 24.9778 8.99861C24.9952 8.94921 25.0222 8.90373 25.0572 8.86475C25.0922 8.82577 25.1345 8.79407 25.1817 8.77145C25.229 8.74882 25.2802 8.73573 25.3325 8.7329C25.3848 8.73008 25.4371 8.73758 25.4865 8.75499C25.5359 8.7724 25.5814 8.79936 25.6204 8.83435C25.6594 8.86933 25.6911 8.91165 25.7137 8.95889C25.7363 9.00612 25.7494 9.05735 25.7522 9.10965C25.7877 9.76915 25.703 10.3192 25.621 10.8514C25.5577 11.2622 25.4922 11.6869 25.4765 12.1832C25.4612 12.6517 25.521 13.1492 25.5842 13.6757C25.7442 15.0062 25.9255 16.5142 24.9115 18.0284C24.875 18.0829 24.8256 18.1276 24.7677 18.1585C24.7097 18.1894 24.6451 18.2055 24.5795 18.2054Z" fill="#F3F5F9"/>
</svg>
