<svg width="19" height="20" viewBox="0 0 19 20" fill="none" xmlns="http://www.w3.org/2000/svg">
<path d="M0.307626 11.3571C0.142293 11.2456 0.0436258 11.0928 0.0116258 10.8986C-0.0205409 10.7043 0.0140425 10.5194 0.115376 10.3439L3.05963 5.61686C3.38779 5.0912 3.85571 4.80911 4.46338 4.77062C5.07104 4.73228 5.57238 4.94578 5.96738 5.41112L7.02888 6.64387C7.09938 6.7272 7.18754 6.76403 7.29338 6.75436C7.39904 6.7447 7.47754 6.69503 7.52888 6.60537L9.74038 3.01487C10.0852 2.4457 10.5865 2.15536 11.2441 2.14386C11.9018 2.1322 12.4115 2.40587 12.7731 2.96487L13.8846 4.64387C13.9486 4.73353 14.0368 4.77837 14.1491 4.77837C14.2613 4.77837 14.3462 4.73028 14.4039 4.63411L17.0884 0.357116C17.2 0.171282 17.3648 0.0571989 17.5826 0.0148656C17.8006 -0.0274678 17.9975 0.0206145 18.1731 0.159115C18.332 0.270615 18.4275 0.420282 18.4596 0.608115C18.4916 0.795949 18.457 0.977698 18.3556 1.15337L15.6711 5.43037C15.3263 5.9892 14.825 6.26861 14.1674 6.26861C13.5097 6.26861 13 5.99753 12.6384 5.45537L11.5366 3.79561C11.4725 3.69945 11.3843 3.65303 11.2721 3.65636C11.16 3.65953 11.075 3.7092 11.0174 3.80537L8.80562 7.38612C8.48779 7.91178 8.02338 8.19795 7.41238 8.24462C6.80154 8.29145 6.29871 8.0822 5.90388 7.61686L4.82688 6.35911C4.75638 6.27578 4.66988 6.23895 4.56738 6.24861C4.46471 6.25811 4.38779 6.30778 4.33663 6.39762L1.39238 11.1496C1.28071 11.3354 1.11596 11.4511 0.898126 11.4966C0.680126 11.5421 0.483293 11.4956 0.307626 11.3571ZM12.5481 16.1784C13.2993 16.1784 13.9342 15.919 14.4529 15.4004C14.9715 14.8819 15.2309 14.2469 15.2309 13.4956C15.2309 12.7443 14.9715 12.1094 14.4529 11.5909C13.9342 11.0722 13.2993 10.8129 12.5481 10.8129C11.7968 10.8129 11.1618 11.0722 10.6431 11.5909C10.1246 12.1094 9.86538 12.7443 9.86538 13.4956C9.86538 14.2469 10.1246 14.8819 10.6431 15.4004C11.1618 15.919 11.7968 16.1784 12.5481 16.1784ZM12.5481 17.6784C11.3878 17.6784 10.4006 17.2713 9.58663 16.4571C8.77246 15.6431 8.36538 14.6559 8.36538 13.4956C8.36538 12.3354 8.77246 11.3483 9.58663 10.5341C10.4006 9.72012 11.3878 9.31312 12.5481 9.31312C13.7083 9.31312 14.6955 9.72012 15.5096 10.5341C16.3236 11.3483 16.7306 12.3354 16.7306 13.4956C16.7306 13.9354 16.6659 14.3579 16.5364 14.7629C16.407 15.168 16.2193 15.5392 15.9731 15.8764L18.2039 18.1169C18.3422 18.2554 18.4114 18.4278 18.4114 18.6341C18.4114 18.8404 18.3422 19.0129 18.2039 19.1514C18.0654 19.2899 17.8913 19.3591 17.6816 19.3591C17.4721 19.3591 17.2981 19.2899 17.1596 19.1514L14.9191 16.9206C14.582 17.1668 14.2125 17.3546 13.8106 17.4841C13.4086 17.6136 12.9878 17.6784 12.5481 17.6784Z" fill="white"/>
</svg>
