<svg width="32" height="32" viewBox="0 0 32 32" fill="none" xmlns="http://www.w3.org/2000/svg">
<path d="M1.5502 13.175C3.2252 13.975 12.4752 17.7 13.9252 18.4C15.3752 19.1 16.4252 19.1 18.2752 18.15C20.1252 17.175 28.8252 13.625 30.5002 12.75C31.3502 12.3 31.7252 11.95 31.7252 11.65V8.52496C31.7252 8.19996 31.3002 7.92496 30.4752 7.62496C28.8502 7.02496 20.2002 3.59996 18.5502 2.97496C16.9002 2.37496 16.2252 2.39996 14.2752 3.09996C12.3252 3.79996 3.1502 7.39996 1.5002 8.04996C0.700195 8.37496 0.250195 8.64996 0.250195 8.97497H0.200195V12.15C0.250195 12.45 0.725195 12.775 1.5502 13.175ZM16.6502 13.625L11.5752 11.525L18.8502 10.4L16.6502 13.625ZM27.6752 8.62496L23.3752 10.325L22.9002 10.5L18.6002 8.79996L23.3752 6.92496L27.6752 8.62496ZM15.0252 5.49996L14.3252 4.19996L16.5252 5.04996L18.6002 4.37496L18.0502 5.72496L20.1502 6.52496L17.4252 6.79996L16.8252 8.27496L15.8502 6.64996L12.7002 6.37496L15.0252 5.49996ZM9.6002 7.32496C11.7502 7.32496 13.5002 7.99996 13.5002 8.82496C13.5002 9.64996 11.7502 10.325 9.6002 10.325C7.4502 10.325 5.7002 9.64996 5.7002 8.82496C5.7002 7.99996 7.4502 7.32496 9.6002 7.32496ZM30.5002 14.95C28.8252 15.825 20.1502 19.4 18.3002 20.35C16.4502 21.325 15.4252 21.3 13.9752 20.6C12.5252 19.9 3.2252 16.175 1.5752 15.375C0.725195 14.975 0.250195 14.65 0.250195 14.325V17.5C0.250195 17.825 0.725195 18.15 1.5502 18.55C3.2252 19.35 12.4752 23.075 13.9252 23.775C15.3752 24.475 16.4252 24.475 18.2752 23.525C20.1252 22.55 28.8252 19 30.5002 18.125C31.3502 17.675 31.7252 17.325 31.7252 17.025V13.9C31.7252 14.175 31.3252 14.525 30.5002 14.95ZM30.5002 20.125C28.8252 21 20.1502 24.575 18.3002 25.525C16.4502 26.5 15.4252 26.475 13.9752 25.775C12.5252 25.075 3.2252 21.35 1.5752 20.55C0.725195 20.175 0.250195 19.825 0.250195 19.5V22.675C0.250195 23 0.725195 23.325 1.5502 23.725C3.2252 24.525 12.4752 28.25 13.9252 28.95C15.3752 29.65 16.4252 29.65 18.2752 28.7C20.1252 27.725 28.8252 24.175 30.5002 23.3C31.3502 22.85 31.7252 22.5 31.7252 22.2V19.075C31.7252 19.375 31.3252 19.7 30.5002 20.125Z" fill="#D82C20"/>
</svg>
