<svg width="32" height="35" viewBox="0 0 32 35" fill="none" xmlns="http://www.w3.org/2000/svg">
<g clip-path="url(#clip0_1483_25851)">
<path d="M29.3307 4.93604L32.0001 6.21664V28.7133L29.3307 29.9986L25.1064 17.4999L29.3307 4.93604Z" fill="#5294CF"/>
<path d="M2.66472 4.93604L0 6.21664V28.7133L2.66472 29.9986L9.33353 17.4999L2.66472 4.93604Z" fill="#205B99"/>
<path d="M15.9976 26.7621L29.3305 29.9893V4.93604L15.9976 8.16315V26.7621Z" fill="#205B99"/>
<path d="M15.9975 26.7621L2.66455 29.9893V4.93604L15.9975 8.16315V26.7621Z" fill="#5294CF"/>
<path d="M19.1963 35L24.2962 32.4714V2.52861L19.1963 0L14.1338 16.6432L19.1963 35Z" fill="#5294CF"/>
<path d="M12.7989 35L7.70361 32.4714V2.52861L12.7989 0L17.3322 17.5L12.7989 35Z" fill="#205B99"/>
<path d="M12.7988 0H19.2007V35H12.7988V0Z" fill="#2E73B8"/>
</g>
<defs>
<clipPath id="clip0_1483_25851">
<rect width="32" height="35" fill="white"/>
</clipPath>
</defs>
</svg>
