<svg width="32" height="32" viewBox="0 0 32 32" fill="none" xmlns="http://www.w3.org/2000/svg">
<g clip-path="url(#clip0_1483_25865)">
<path d="M12.5265 20.2278C13.5453 20.3004 14.3524 21.1381 14.3735 22.1656L14.3739 22.2067V29.9991C14.3739 31.0972 13.4781 31.9871 12.3783 31.9871C11.2864 31.9871 10.4016 31.1187 10.3805 30.0387L10.3801 29.9991V25.6402L6.57913 27.8216C5.626 28.3733 4.40713 28.0468 3.85375 27.0984C3.31 26.1597 3.6205 24.96 4.54638 24.4009L4.58325 24.3792L11.3676 20.4872C11.7183 20.2837 12.1229 20.1931 12.5265 20.2278ZM20.5829 20.4604L20.6306 20.4872L27.4136 24.3792C28.3695 24.9284 28.6938 26.1474 28.1444 27.0984C27.6009 28.0345 26.405 28.3648 25.4565 27.8426L25.4191 27.8216L21.6208 25.6402V29.9991C21.6208 31.0972 20.7278 31.9871 19.6225 31.9871C18.5306 31.9871 17.6483 31.1187 17.6271 30.0387L17.6268 29.9991V22.2067C17.6268 21.1605 18.4395 20.3013 19.4743 20.2278C19.8455 20.1961 20.2313 20.2692 20.583 20.4604M2.95888 10.3541L2.99638 10.375L9.77563 14.2696C10.2523 14.5431 10.5704 14.9768 10.7046 15.4623C10.7493 15.6186 10.7696 15.7747 10.7775 15.9312C10.7825 16.1471 10.7544 16.3659 10.6866 16.5781C10.5433 17.0415 10.2351 17.4356 9.82088 17.6855L9.77563 17.7122L2.99638 21.6094C2.03938 22.1574 0.819253 21.8332 0.270128 20.885C-0.276247 19.9438 0.0343776 18.75 0.963128 18.1901L0.999628 18.1687L4.78788 15.9949L0.999628 13.8151C0.0425026 13.2653 -0.284497 12.053 0.270003 11.1035C0.812128 10.1651 2.00775 9.83555 2.95888 10.3541ZM31.731 11.1035C32.2841 12.0528 31.957 13.2653 31.0003 13.8147L27.2118 15.9945L31.0003 18.1683C31.957 18.7187 32.284 19.9315 31.731 20.8847C31.1789 21.8329 29.9578 22.1572 29.0044 21.6092L22.22 17.7121C21.7676 17.4502 21.4535 17.0394 21.3141 16.578C21.248 16.369 21.2177 16.1503 21.2246 15.9311C21.2286 15.7725 21.2522 15.615 21.2949 15.4621C21.4355 14.9582 21.7678 14.5298 22.22 14.2695L29.0044 10.3749C29.9578 9.82689 31.1789 10.1528 31.731 11.1035ZM16.4133 12.278C16.5281 12.278 16.6865 12.3427 16.7671 12.4253L19.5869 15.227C19.6673 15.307 19.7325 15.4659 19.7325 15.5805V16.4066C19.7325 16.5185 19.6673 16.6773 19.5869 16.7562L16.7671 19.558C16.6865 19.6403 16.5306 19.7077 16.4133 19.7077H15.584C15.4701 19.7077 15.3118 19.6403 15.2299 19.558L12.4116 16.7562C12.3309 16.6773 12.2658 16.5185 12.2658 16.4066V15.5805C12.2658 15.4659 12.3309 15.3069 12.4116 15.227L15.2299 12.4253C15.3118 12.3427 15.4701 12.278 15.584 12.278H16.4133ZM16.0143 14.6691H15.9826C15.8689 14.6691 15.7105 14.7353 15.6313 14.8151L14.8148 15.6238C14.7329 15.7075 14.6703 15.8652 14.6703 15.9784V16.01C14.6703 16.1219 14.7329 16.2782 14.8148 16.3597L15.6313 17.1706C15.7116 17.2506 15.8688 17.3166 15.9825 17.3166H16.0143C16.1283 17.3166 16.2868 17.2506 16.3673 17.1706L17.1836 16.3597C17.2641 16.2782 17.333 16.1219 17.333 16.01V15.9784C17.333 15.8652 17.2641 15.7074 17.1836 15.6238L16.3673 14.8151C16.2868 14.7353 16.1283 14.6691 16.0143 14.6691ZM19.6225 0C20.7144 0 21.5991 0.868769 21.6204 1.94573L21.6208 1.98526V6.34554L25.4191 4.16151C26.3736 3.61261 27.5938 3.93813 28.1444 4.88734C28.4051 5.33788 28.4785 5.87342 28.3487 6.37791C28.2188 6.8824 27.8962 7.31519 27.4506 7.58249L27.4136 7.6042L20.6306 11.4999C20.2801 11.7016 19.8769 11.7919 19.4741 11.7591C18.4531 11.6841 17.6481 10.8451 17.6271 9.81873L17.6268 9.77757V1.98526C17.6269 0.889977 18.5175 0 19.6225 0ZM12.3783 0C13.4649 0 14.3523 0.868769 14.3735 1.94573L14.3739 1.98526V9.77757C14.3739 10.8225 13.5589 11.6831 12.5264 11.7591C12.1415 11.7905 11.7557 11.7097 11.4154 11.5264L11.3676 11.4999L4.58325 7.6042C3.62875 7.05481 3.30288 5.84094 3.85375 4.88734C4.4 3.95056 5.5945 3.62115 6.54188 4.14067L6.57913 4.16151L10.3801 6.34554V1.98526C10.3801 0.889977 11.2731 0 12.3783 0Z" fill="#29B5E8"/>
</g>
<defs>
<clipPath id="clip0_1483_25865">
<rect width="32" height="32" fill="white"/>
</clipPath>
</defs>
</svg>
