<svg width="16" height="16" viewBox="0 0 16 16" fill="none" xmlns="http://www.w3.org/2000/svg">
<mask id="mask0_1617_973" style="mask-type:alpha" maskUnits="userSpaceOnUse" x="0" y="0" width="16" height="16">
<rect width="16" height="16" fill="#D9D9D9"/>
</mask>
<g mask="url(#mask0_1617_973)">
<path d="M7.99998 12.3109L9.69748 10.6134C9.79659 10.5143 9.91604 10.4636 10.0558 10.4614C10.1955 10.4593 10.317 10.5099 10.4205 10.6134C10.5239 10.7168 10.5756 10.8373 10.5756 10.9749C10.5756 11.1125 10.5239 11.233 10.4205 11.3364L8.42182 13.3352C8.35937 13.3975 8.29354 13.4415 8.22432 13.4672C8.15509 13.4929 8.08032 13.5057 7.99998 13.5057C7.91965 13.5057 7.84487 13.4929 7.77565 13.4672C7.70643 13.4415 7.64059 13.3975 7.57815 13.3352L5.57948 11.3364C5.48037 11.2373 5.42971 11.1178 5.42748 10.978C5.42537 10.8384 5.47604 10.7168 5.57948 10.6134C5.68293 10.5099 5.80343 10.4582 5.94098 10.4582C6.07865 10.4582 6.19915 10.5099 6.30248 10.6134L7.99998 12.3109ZM7.99998 3.73121L6.30248 5.42871C6.20337 5.52782 6.08393 5.57849 5.94415 5.58071C5.80448 5.58282 5.68293 5.53215 5.57948 5.42871C5.47604 5.32527 5.42432 5.20477 5.42432 5.06721C5.42432 4.92965 5.47604 4.80915 5.57948 4.70571L7.57815 2.70704C7.64059 2.6446 7.70643 2.60054 7.77565 2.57488C7.84487 2.54921 7.91965 2.53638 7.99998 2.53638C8.08032 2.53638 8.15509 2.54921 8.22432 2.57488C8.29354 2.60054 8.35937 2.6446 8.42182 2.70704L10.4205 4.70571C10.5196 4.80482 10.5703 4.92427 10.5725 5.06404C10.5746 5.20371 10.5239 5.32527 10.4205 5.42871C10.317 5.53215 10.1965 5.58388 10.059 5.58388C9.92132 5.58388 9.80082 5.53215 9.69748 5.42871L7.99998 3.73121Z" fill="#4A4742"/>
</g>
</svg>
